<svg width="10" height="7" viewBox="0 0 11 7" fill="none" xmlns="http://www.w3.org/2000/svg">
<path d="M4.99626 6.5002C4.86466 6.50097 4.7342 6.47574 4.61236 6.42597C4.49052 6.37621 4.37971 6.30289 4.28627 6.2102L0.286278 2.21019C0.0979752 2.02189 -0.0078125 1.76649 -0.0078125 1.50019C-0.0078125 1.23389 0.0979752 0.97849 0.286278 0.790186C0.474582 0.601882 0.729975 0.496094 0.996276 0.496094C1.26258 0.496094 1.51797 0.601882 1.70627 0.790186L4.99626 4.1002L8.29626 0.920186C8.38825 0.817896 8.50035 0.735687 8.62557 0.678701C8.75078 0.621715 8.8864 0.591177 9.02396 0.588998C9.16151 0.586819 9.29803 0.613044 9.42499 0.666035C9.55194 0.719026 9.6666 0.797644 9.76178 0.896968C9.85697 0.996293 9.93064 1.11419 9.97818 1.24328C10.0257 1.37238 10.0461 1.50989 10.0381 1.64723C10.0301 1.78457 9.99378 1.91877 9.93152 2.04145C9.86926 2.16412 9.78236 2.27263 9.67625 2.36019L5.67626 6.2202C5.49339 6.39652 5.25027 6.49663 4.99626 6.5002Z" fill="#484271"/>
</svg>
