<svg width="52" height="48" viewBox="0 0 52 48" fill="none" xmlns="http://www.w3.org/2000/svg">
<path d="M44.2918 10.8894H36.6218V6.95642C36.6325 6.10617 36.4756 5.26214 36.1601 4.47252C35.8446 3.6829 35.3767 2.96315 34.7831 2.35436C34.1894 1.74558 33.4817 1.25968 32.7003 0.92442C31.9188 0.589157 31.079 0.411092 30.2288 0.400391H22.5588C20.8421 0.422791 19.2047 1.126 18.0064 2.35541C16.8081 3.58482 16.1471 5.23978 16.1688 6.95642V10.8894H8.49875C6.43848 10.9158 4.47305 11.7594 3.03469 13.2347C1.59634 14.71 0.802848 16.6962 0.828739 18.7565V39.7336C0.802848 41.7938 1.59634 43.78 3.03469 45.2553C4.47305 46.7306 6.43848 47.5742 8.49875 47.6006H44.2918C46.352 47.5742 48.3175 46.7306 49.7558 45.2553C51.1942 43.78 51.9877 41.7938 51.9618 39.7336V18.7565C51.9877 16.6962 51.1942 14.71 49.7558 13.2347C48.3175 11.7594 46.352 10.9158 44.2918 10.8894ZM34.0658 16.1335V42.3566H18.7288V16.1335H34.0658ZM21.2818 6.95642C21.2788 6.61351 21.4115 6.28333 21.6508 6.03778C21.8902 5.79223 22.2169 5.6512 22.5598 5.64541H30.2288C30.572 5.65068 30.8992 5.79148 31.139 6.03709C31.3788 6.28269 31.5117 6.61317 31.5088 6.95642V10.8894H21.2818V6.95642ZM5.94174 39.7336V18.7565C5.93738 18.4163 6.00006 18.0787 6.12621 17.7628C6.25236 17.4469 6.4395 17.1589 6.67694 16.9153C6.91439 16.6718 7.19749 16.4773 7.51007 16.3432C7.82266 16.209 8.15861 16.1378 8.49875 16.1335H13.6118V42.3566H8.49875C8.15861 42.3523 7.82266 42.281 7.51007 42.1468C7.19749 42.0127 6.91439 41.8183 6.67694 41.5747C6.4395 41.3311 6.25236 41.0432 6.12621 40.7273C6.00006 40.4113 5.93738 40.0737 5.94174 39.7336ZM46.8488 39.7336C46.8573 40.4203 46.5927 41.0823 46.1132 41.574C45.6337 42.0658 44.9785 42.3469 44.2918 42.3556H39.1788V16.1335H44.2918C44.9785 16.1422 45.6337 16.4233 46.1132 16.915C46.5927 17.4067 46.8573 18.0687 46.8488 18.7555V39.7336Z" fill="#5FD46D"/>
</svg>
