<svg width="24" height="24" viewBox="0 0 24 24" fill="none" xmlns="http://www.w3.org/2000/svg">
<path d="M21.0801 6.99863C20.9073 6.69925 20.6599 6.44976 20.3619 6.2745C20.064 6.09924 19.7257 6.0042 19.3801 5.99863H6.58002L6.00002 3.73863C5.94142 3.52047 5.81068 3.32858 5.62909 3.19421C5.44751 3.05983 5.22578 2.9909 5.00001 2.99863H3C2.73479 2.99863 2.48043 3.10399 2.29289 3.29153C2.10536 3.47906 2 3.73342 2 3.99863C2 4.26385 2.10536 4.5182 2.29289 4.70574C2.48043 4.89328 2.73479 4.99863 3 4.99863H4.24001L7.00002 15.2586C7.05862 15.4768 7.18936 15.6687 7.37095 15.8031C7.55253 15.9374 7.77426 16.0064 8.00003 15.9986H17.0001C17.1847 15.9981 17.3656 15.9464 17.5227 15.8493C17.6798 15.7522 17.807 15.6135 17.8901 15.4486L21.1701 8.88863C21.3122 8.59064 21.3784 8.2621 21.3627 7.93231C21.347 7.60253 21.2499 7.28176 21.0801 6.99863ZM16.3801 13.9986H8.76003L7.13002 7.99863H19.3801L16.3801 13.9986Z" fill="#5F5982"/>
<path d="M7.50397 21C8.33243 21 9.00403 20.3284 9.00403 19.5C9.00403 18.6716 8.33243 18 7.50397 18C6.67551 18 6.00391 18.6716 6.00391 19.5C6.00391 20.3284 6.67551 21 7.50397 21Z" fill="#5F5982"/>
<path d="M17.5 21C18.3284 21 19 20.3284 19 19.5C19 18.6716 18.3284 18 17.5 18C16.6716 18 16 18.6716 16 19.5C16 20.3284 16.6716 21 17.5 21Z" fill="#5F5982"/>
</svg>
