<svg width="48" height="48" viewBox="0 0 48 48" fill="none" xmlns="http://www.w3.org/2000/svg">
<path d="M45.3291 27.1469H34.5031L40.6361 20.5599C41.1327 20.0603 41.4114 19.3844 41.4114 18.68C41.4114 17.9755 41.1327 17.2996 40.6361 16.8L29.4631 6.50698C29.2137 6.26538 28.9163 6.07885 28.5902 5.95947C28.2641 5.84009 27.9166 5.79053 27.5701 5.81399C27.2198 5.82244 26.8747 5.89983 26.5543 6.04173C26.234 6.18363 25.9447 6.38726 25.7031 6.64098L20.8501 11.974V2.66699C20.8501 1.95966 20.5691 1.2813 20.0689 0.781144C19.5688 0.280986 18.8904 0 18.1831 0H2.66309C1.95576 0 1.2774 0.280986 0.77724 0.781144C0.277081 1.2813 -0.00390625 1.95966 -0.00390625 2.66699V37.5729C-0.00390625 38.9422 0.265796 40.2981 0.789802 41.5631C1.31381 42.8282 2.08185 43.9777 3.05009 44.9459C5.00553 46.9013 7.65768 47.9999 10.4231 47.9999H45.3291C46.0364 47.9999 46.7148 47.7189 47.2149 47.2187C47.7151 46.7186 47.9961 46.0402 47.9961 45.3329V29.8129C47.9958 29.1058 47.7147 28.4277 47.2146 27.9277C46.7145 27.4278 46.0363 27.1469 45.3291 27.1469ZM27.7831 12.24L34.9031 18.88L20.8491 33.9729V19.68L27.7831 12.24ZM15.5161 18.667V26.6669H5.32909V18.667H15.5161ZM15.5161 5.33399V13.334H5.32909V5.33399H15.5161ZM5.32909 37.5729V31.9999H15.5161V37.5729C15.5161 38.9238 14.9795 40.2193 14.0242 41.1745C13.069 42.1298 11.7735 42.6664 10.4226 42.6664C9.07171 42.6664 7.77616 42.1298 6.82095 41.1745C5.86573 40.2193 5.32909 38.9238 5.32909 37.5729ZM42.6621 42.6659H20.0231L29.5161 32.4799H42.6631L42.6621 42.6659Z" fill="#5444A5"/>
</svg>
