<svg width="51" height="50" viewBox="0 0 51 50" fill="none" xmlns="http://www.w3.org/2000/svg">
<path d="M43.4415 0.799805H8.16151C6.08999 0.869234 4.13062 1.75759 2.71331 3.26995C1.296 4.78231 0.536518 6.79515 0.601509 8.86681V30.3778C0.536518 32.4495 1.296 34.4623 2.71331 35.9747C4.13062 37.487 6.08999 38.3754 8.16151 38.4448H23.2815V43.8228H13.2015C12.5194 43.8684 11.8801 44.1715 11.4131 44.6708C10.9461 45.1701 10.6862 45.8282 10.6862 46.5118C10.6862 47.1955 10.9461 47.8535 11.4131 48.3528C11.8801 48.8521 12.5194 49.1552 13.2015 49.2008H38.4015C39.0836 49.1552 39.7229 48.8521 40.19 48.3528C40.657 47.8535 40.9168 47.1955 40.9168 46.5118C40.9168 45.8282 40.657 45.1701 40.19 44.6708C39.7229 44.1715 39.0836 43.8684 38.4015 43.8228H28.3215V38.4438H43.4415C45.513 38.3744 47.4724 37.486 48.8897 35.9737C50.307 34.4613 51.0665 32.4485 51.0015 30.3768V8.86681C51.0665 6.79515 50.307 4.78231 48.8897 3.26995C47.4724 1.75759 45.513 0.869234 43.4415 0.799805ZM45.9615 30.3778C45.9831 31.0683 45.7299 31.7392 45.2575 32.2433C44.7851 32.7474 44.132 33.0436 43.4415 33.0668H8.16151C7.47103 33.0436 6.81796 32.7474 6.34554 32.2433C5.87313 31.7392 5.61993 31.0683 5.64151 30.3778V8.86681C5.61993 8.17628 5.87313 7.50538 6.34554 7.00128C6.81796 6.49718 7.47103 6.20104 8.16151 6.1778H43.4415C44.132 6.20104 44.7851 6.49718 45.2575 7.00128C45.7299 7.50538 45.9831 8.17628 45.9615 8.86681V30.3778Z" fill="#EF8543"/>
</svg>
