<svg width="61" height="60" viewBox="0 0 61 60" fill="none" xmlns="http://www.w3.org/2000/svg">
<path d="M46.0806 22.789C45.9192 22.5772 45.7171 22.3999 45.4861 22.2675C45.2551 22.1351 44.9999 22.0504 44.7356 22.0184C44.4713 21.9863 44.2032 22.0076 43.9473 22.0809C43.6913 22.1543 43.4527 22.2782 43.2454 22.4453C43.0382 22.6125 42.8665 22.8195 42.7406 23.0541C42.6147 23.2887 42.5372 23.5462 42.5125 23.8113C42.4878 24.0764 42.5165 24.3438 42.5969 24.5976C42.6773 24.8514 42.8078 25.0865 42.9806 25.2891C43.9842 26.6535 44.5254 28.3029 44.5254 29.9967C44.5254 31.6905 43.9842 33.3399 42.9806 34.7043C42.6664 35.117 42.5255 35.636 42.5879 36.151C42.6503 36.666 42.9111 37.1363 43.3149 37.4619C43.7187 37.7875 44.2335 37.9428 44.75 37.8947C45.2665 37.8466 45.7438 37.599 46.0806 37.2044C47.6559 35.1308 48.5088 32.5983 48.5088 29.9942C48.5088 27.39 47.6559 24.8576 46.0806 22.784V22.789Z" fill="#5444A5"/>
<path d="M51.3409 10.7901C51.169 10.5592 50.9386 10.3784 50.6734 10.2663C50.4082 10.1542 50.118 10.1149 49.8325 10.1525C49.5471 10.1901 49.2769 10.3033 49.0499 10.4802C48.8228 10.6572 48.6471 10.8915 48.5409 11.1591C48.199 11.7814 48.0418 12.4882 48.0874 13.1967C48.1331 13.9052 48.3799 14.5859 48.7989 15.1591C52.0249 18.7212 53.9529 24.1752 54.0429 29.9992C53.9529 35.8232 52.0259 41.2773 48.7989 44.8393C48.3664 45.3904 48.118 46.0634 48.0889 46.7633C48.0339 47.4849 48.191 48.2068 48.5409 48.8403C48.6827 49.1305 48.899 49.3778 49.1676 49.5572C49.4362 49.7365 49.7475 49.8415 50.0699 49.8613C50.3168 49.8531 50.5589 49.7903 50.7786 49.6773C50.9984 49.5644 51.1904 49.4043 51.3409 49.2083C55.487 44.5783 57.941 37.5153 58.015 29.9982C57.941 22.4822 55.487 15.4181 51.3409 10.7881V10.7901Z" fill="#5444A5"/>
<path d="M30.2098 6.4922C29.9297 6.26295 29.5788 6.1377 29.2168 6.1377C28.8548 6.1377 28.504 6.26295 28.2238 6.4922L15.3477 18.2752H5.4157C4.31569 18.2752 3.42969 19.4602 3.42969 20.9232V39.0871C3.42969 40.5491 4.31869 41.7351 5.4157 41.7351H15.3467L28.0798 53.3851C28.3911 53.6657 28.7928 53.8254 29.2118 53.8351C30.3118 53.8351 31.1978 52.6501 31.1978 51.1871V8.82219C31.2185 8.38411 31.1399 7.94703 30.9679 7.54358C30.796 7.14013 30.5351 6.78072 30.2048 6.4922H30.2098ZM27.2898 46.2101L17.0998 36.8901C16.7934 36.6016 16.3886 36.4407 15.9678 36.4401H7.36771V23.5702H15.9678C16.3886 23.5696 16.7934 23.4087 17.0998 23.1202L27.2258 13.8512L27.2898 46.2101Z" fill="#5444A5"/>
</svg>
