<svg width="47" height="48" viewBox="0 0 47 48" fill="none" xmlns="http://www.w3.org/2000/svg">
<path d="M46.2027 4.21899C46.2288 3.12856 45.8216 2.07224 45.0703 1.28145C44.3191 0.490651 43.285 0.0298544 42.1947 0L4.61074 0C3.5204 0.0298544 2.48634 0.490651 1.7351 1.28145C0.983851 2.07224 0.576666 3.12856 0.602742 4.21899V32.5309C0.576666 33.6213 0.983851 34.6777 1.7351 35.4685C2.48634 36.2593 3.5204 36.7201 4.61074 36.7499H16.6337V39.6999C15.0917 40.0685 13.7216 40.9522 12.7499 42.205C11.7783 43.4578 11.2631 45.0047 11.2897 46.5899C11.2847 46.7702 11.3152 46.9498 11.3797 47.1183C11.4441 47.2869 11.5412 47.441 11.6653 47.572C11.7894 47.703 11.9381 47.8082 12.1029 47.8816C12.2677 47.955 12.4454 47.9952 12.6257 47.9999H34.1927C40.8167 47.9919 46.2027 42.3179 46.2027 35.3439C46.2026 34.7466 46.1625 34.1499 46.0827 33.5579C46.1627 33.2214 46.2029 32.8768 46.2027 32.5309V4.21899ZM4.61074 33.9379C4.24735 33.928 3.90272 33.7744 3.65231 33.5109C3.4019 33.2474 3.26614 32.8953 3.27474 32.5319V31.1159H22.8437C22.5368 32.0313 22.3312 32.9777 22.2307 33.9379H4.61074ZM22.8437 39.5629H19.3027V36.7499H22.2277C22.3292 37.7073 22.5357 38.6507 22.8437 39.5629ZM14.1907 45.1879C14.4466 44.3824 14.9491 43.6776 15.6272 43.173C16.3052 42.6685 17.1246 42.3896 17.9697 42.3759H24.1867C24.8568 43.43 25.6806 44.3781 26.6307 45.1889L14.1907 45.1879ZM34.1787 45.1879C31.6346 45.1182 29.2219 44.0431 27.469 42.198C25.7161 40.3528 24.766 37.8882 24.8267 35.3439C24.766 32.7995 25.7162 30.3347 27.4693 28.4895C29.2225 26.6444 31.6355 25.5693 34.1797 25.4999C36.7238 25.5696 39.1365 26.6447 40.8894 28.4899C42.6423 30.335 43.5924 32.7996 43.5317 35.3439C43.5924 37.8882 42.6423 40.3528 40.8894 42.198C39.1365 44.0431 36.7238 45.1182 34.1797 45.1879H34.1787ZM43.5307 27.3999C42.3901 25.8636 40.889 24.6315 39.1598 23.8122C37.4306 22.9929 35.5264 22.6116 33.6151 22.702C31.7038 22.7923 29.8441 23.3514 28.1998 24.3301C26.5556 25.3088 25.1774 26.6769 24.1867 28.3139H3.27474V4.21899C3.26614 3.85557 3.4019 3.50355 3.65231 3.24002C3.90272 2.9765 4.24735 2.82294 4.61074 2.81299H42.1947C42.5581 2.82294 42.9027 2.9765 43.1531 3.24002C43.4035 3.50355 43.5393 3.85557 43.5307 4.21899V27.3999Z" fill="#18AFED"/>
<path d="M20.7321 10.3404C20.6051 10.2654 21.5171 10.8164 13.9861 6.25032C13.7748 6.12296 13.5328 6.05566 13.2861 6.05566C13.0394 6.05566 12.7974 6.12296 12.5861 6.25032L5.79809 10.3394C5.59318 10.4586 5.42294 10.6293 5.3042 10.8345C5.18547 11.0397 5.12235 11.2723 5.12109 11.5094V19.7095C5.1211 19.9408 5.18027 20.1683 5.293 20.3703C5.40572 20.5723 5.56824 20.7421 5.76509 20.8635L12.5481 25.0496C12.7623 25.182 13.0092 25.2522 13.2611 25.2522C13.513 25.2522 13.7598 25.182 13.9741 25.0496L20.7561 20.8605C20.9529 20.739 21.1153 20.5692 21.2281 20.3672C21.3408 20.1653 21.4 19.9378 21.4001 19.7065V11.5064C21.3984 11.271 21.336 11.04 21.219 10.8358C21.102 10.6315 20.9343 10.4609 20.7321 10.3404ZM11.9041 21.4635L7.83509 18.9495V13.9144L11.9041 16.3735V21.4635ZM13.2601 14.0224L9.10409 11.5104L13.2811 8.99436L17.4211 11.5074L13.2601 14.0224ZM18.6871 18.9495L14.6211 21.4635V16.3735L18.6901 13.9144L18.6871 18.9495Z" fill="#18AFED"/>
<path d="M38.2722 7.94727H32.2482C31.8488 7.94727 31.4657 8.10591 31.1833 8.38832C30.9009 8.67072 30.7422 9.05374 30.7422 9.45312C30.7422 9.8525 30.9009 10.2355 31.1833 10.5179C31.4657 10.8003 31.8488 10.959 32.2482 10.959H38.2722C38.6716 10.959 39.0547 10.8003 39.3371 10.5179C39.6195 10.2355 39.7782 9.8525 39.7782 9.45312C39.7782 9.05374 39.6195 8.67072 39.3371 8.38832C39.0547 8.10591 38.6716 7.94727 38.2722 7.94727Z" fill="#18AFED"/>
<path d="M38.2722 13.8447H32.2482C31.8488 13.8447 31.4657 14.0034 31.1833 14.2858C30.9009 14.5683 30.7422 14.9513 30.7422 15.3507C30.7422 15.7501 30.9009 16.1332 31.1833 16.4156C31.4657 16.698 31.8488 16.8567 32.2482 16.8567H38.2722C38.6716 16.8567 39.0547 16.698 39.3371 16.4156C39.6195 16.1332 39.7782 15.7501 39.7782 15.3507C39.7782 14.9513 39.6195 14.5683 39.3371 14.2858C39.0547 14.0034 38.6716 13.8447 38.2722 13.8447Z" fill="#18AFED"/>
<path d="M35.2602 35.542C34.0623 35.5433 32.914 36.0198 32.067 36.8667C31.22 37.7137 30.7435 38.8621 30.7422 40.0599C30.7422 40.0599 30.7422 40.0649 30.7422 40.0679V40.0939C30.7422 40.1029 30.7422 40.1109 30.7422 40.1199C30.754 41.0109 31.029 41.8784 31.5326 42.6134C32.0362 43.3484 32.7459 43.9182 33.5724 44.251C34.3989 44.5837 35.3054 44.6647 36.1778 44.4836C37.0502 44.3026 37.8496 43.8676 38.4755 43.2335C39.1014 42.5993 39.5257 41.7942 39.6952 40.9195C39.8648 40.0448 39.7719 39.1395 39.4282 38.3174C39.0846 37.4954 38.5055 36.7933 37.7639 36.2994C37.0223 35.8056 36.1512 35.5421 35.2602 35.542ZM35.2602 41.5659C34.862 41.5654 34.4801 41.4074 34.198 41.1264C33.9158 40.8453 33.7563 40.4641 33.7542 40.0659V40.0599C33.7546 39.7622 33.8432 39.4712 34.009 39.2238C34.1747 38.9764 34.41 38.7837 34.6852 38.67C34.9605 38.5563 35.2632 38.5268 35.5552 38.5851C35.8472 38.6435 36.1154 38.7871 36.3258 38.9978C36.5362 39.2085 36.6794 39.4768 36.7374 39.7689C36.7953 40.0609 36.7654 40.3636 36.6514 40.6387C36.5373 40.9138 36.3443 41.1489 36.0967 41.3143C35.8491 41.4797 35.558 41.5679 35.2602 41.5679V41.5659Z" fill="#18AFED"/>
</svg>
