<svg width="50" height="48" viewBox="0 0 50 48" fill="none" xmlns="http://www.w3.org/2000/svg">
<path d="M41.9146 11.133H34.6645V7.26799C34.715 5.61408 34.1072 4.00771 32.9747 2.80132C31.8422 1.59493 30.2774 0.88706 28.6235 0.833008H21.3735C19.7196 0.886801 18.1545 1.59456 17.0217 2.80098C15.889 4.00739 15.2811 5.61391 15.3315 7.26799V11.133H8.08154C6.09758 11.1983 4.22042 12.0474 2.86144 13.4943C1.50246 14.9412 0.7725 16.8678 0.831536 18.852V39.4439C0.77169 41.4286 1.50129 43.356 2.86036 44.8035C4.21942 46.2511 6.09705 47.1006 8.08154 47.1659H41.9146C43.899 47.1006 45.7767 46.2511 47.1357 44.8035C48.4948 43.356 49.2244 41.4286 49.1646 39.4439V18.852C49.2236 16.8678 48.4936 14.9412 47.1346 13.4943C45.7757 12.0474 43.8985 11.1983 41.9146 11.133ZM20.1645 7.26799C20.1546 6.93727 20.2761 6.61609 20.5026 6.37484C20.729 6.13359 21.0419 5.99196 21.3725 5.981H28.6225C28.9534 5.9917 29.2665 6.13322 29.4932 6.3745C29.7198 6.61577 29.8415 6.9371 29.8315 7.26799V11.133H20.1645V7.26799ZM44.3316 39.4439C44.3515 40.1055 44.1083 40.748 43.6552 41.2306C43.2021 41.7131 42.5761 41.9962 41.9146 42.0179H8.08154C7.41998 41.9962 6.79402 41.7131 6.34093 41.2306C5.88783 40.748 5.64459 40.1055 5.66454 39.4439V18.852C5.64432 18.1902 5.88744 17.5474 6.34057 17.0647C6.79369 16.5819 7.4198 16.2986 8.08154 16.277H41.9146C42.5763 16.2986 43.2024 16.5819 43.6555 17.0647C44.1086 17.5474 44.3518 18.1902 44.3316 18.852V39.4439Z" fill="#18AFED"/>
</svg>
